<svg width="23" height="23" viewBox="0 0 23 23" fill="none" xmlns="http://www.w3.org/2000/svg">
<circle cx="11.5" cy="11.5" r="11.5" fill="black" fill-opacity="0.46"/>
<path d="M15.25 10.5625V15.9531C15.25 16.107 15.2197 16.2594 15.1608 16.4016C15.1019 16.5438 15.0156 16.6729 14.9068 16.7818C14.7979 16.8906 14.6688 16.9769 14.5266 17.0358C14.3844 17.0947 14.232 17.125 14.0781 17.125H7.04688C6.73607 17.125 6.438 17.0015 6.21823 16.7818C5.99847 16.562 5.875 16.2639 5.875 15.9531V8.92188C5.875 8.61107 5.99847 8.313 6.21823 8.09323C6.438 7.87347 6.73607 7.75 7.04688 7.75H11.9535" stroke="#037D85" stroke-width="1.07143" stroke-linecap="round" stroke-linejoin="round"/>
<path d="M17.4748 5.56007C17.432 5.51303 17.3801 5.47516 17.3223 5.44874C17.2644 5.42233 17.2018 5.40792 17.1382 5.40639C17.0746 5.40485 17.0114 5.41623 16.9523 5.43982C16.8933 5.46342 16.8396 5.49874 16.7946 5.54366L16.4322 5.90431C16.3882 5.94825 16.3636 6.00785 16.3636 6.06998C16.3636 6.13211 16.3882 6.1917 16.4322 6.23565L16.7644 6.56729C16.7862 6.58917 16.8121 6.60653 16.8406 6.61838C16.8691 6.63023 16.8996 6.63633 16.9305 6.63633C16.9614 6.63633 16.9919 6.63023 17.0204 6.61838C17.049 6.60653 17.0748 6.58917 17.0966 6.56729L17.4499 6.21573C17.6287 6.03731 17.6453 5.74669 17.4748 5.56007ZM15.6995 6.63673L10.4108 11.916C10.3787 11.948 10.3554 11.9876 10.3431 12.0312L10.0985 12.7598C10.0926 12.7795 10.0922 12.8005 10.0973 12.8205C10.1023 12.8405 10.1127 12.8587 10.1273 12.8733C10.1419 12.8879 10.1601 12.8983 10.1801 12.9034C10.2001 12.9084 10.2211 12.908 10.2409 12.9022L10.9689 12.6575C11.0124 12.6452 11.0521 12.6219 11.084 12.5899L16.3633 7.30059C16.4122 7.25123 16.4396 7.18459 16.4396 7.11515C16.4396 7.0457 16.4122 6.97906 16.3633 6.9297L16.0718 6.63673C16.0224 6.58744 15.9554 6.55976 15.8856 6.55976C15.8158 6.55976 15.7489 6.58744 15.6995 6.63673V6.63673Z" fill="#037D85"/>
</svg>