<svg width="23" height="23" viewBox="0 0 23 23" fill="none" xmlns="http://www.w3.org/2000/svg">
<circle cx="11.5" cy="11.5" r="11.5" fill="black" fill-opacity="0.46"/>
<path d="M13.5265 5.87267C13.0119 5.30991 12.2932 5 11.5 5C10.7025 5 9.98146 5.30803 9.46929 5.86732C8.95156 6.43276 8.69931 7.20124 8.75854 8.03105C8.87594 9.66819 10.1057 11 11.5 11C12.8943 11 14.1219 9.66845 14.2412 8.03159C14.3012 7.20927 14.0474 6.4424 13.5265 5.87267ZM16.1537 16.9999H6.84628C6.72446 17.0015 6.60381 16.9756 6.49312 16.924C6.38243 16.8725 6.28448 16.7965 6.2064 16.7018C6.03453 16.4937 5.96525 16.2095 6.01655 15.9221C6.23971 14.668 6.93618 13.6145 8.03086 12.875C9.00339 12.2184 10.2353 11.8571 11.5 11.8571C12.7647 11.8571 13.9966 12.2187 14.9691 12.875C16.0638 13.6142 16.7603 14.6677 16.9835 15.9218C17.0348 16.2092 16.9655 16.4934 16.7936 16.7015C16.7155 16.7963 16.6176 16.8723 16.5069 16.9239C16.3962 16.9755 16.2756 17.0015 16.1537 16.9999Z" fill="#037D85"/>
</svg>
